<svg width="20" height="18" viewBox="0 0 20 18" fill="none" xmlns="http://www.w3.org/2000/svg">
<path d="M3.76663 3.94506L1.1608 1.34006L2.33996 0.160889L18.8391 16.6609L17.66 17.8392L14.9016 15.0809C13.436 16.0105 11.7356 16.5028 9.99996 16.5001C5.50663 16.5001 1.7683 13.2667 0.984131 9.00006C1.34249 7.05899 2.31882 5.2858 3.76746 3.94506H3.76663ZM12.2975 12.4767L11.0775 11.2567C10.6108 11.48 10.0864 11.553 9.57657 11.4657C9.0667 11.3784 8.59647 11.1351 8.23069 10.7693C7.86491 10.4036 7.62161 9.93332 7.53431 9.42345C7.44702 8.91358 7.52003 8.38918 7.7433 7.92256L6.5233 6.70256C5.99306 7.5038 5.75602 8.46367 5.85232 9.41963C5.94862 10.3756 6.37234 11.2689 7.05173 11.9483C7.73112 12.6277 8.62443 13.0514 9.58039 13.1477C10.5364 13.244 11.4962 13.007 12.2975 12.4767ZM6.64496 2.13339C7.68413 1.72506 8.81663 1.50006 9.99996 1.50006C14.4933 1.50006 18.2316 4.73339 19.0158 9.00006C18.7605 10.3881 18.1865 11.698 17.3391 12.8267L14.1225 9.61006C14.218 8.9664 14.1615 8.30931 13.9574 7.69143C13.7533 7.07356 13.4074 6.51207 12.9472 6.05195C12.4871 5.59182 11.9256 5.24586 11.3078 5.04178C10.6899 4.8377 10.0328 4.78117 9.38913 4.87672L6.64496 2.13422V2.13339Z" fill="#636177"/>
</svg>
